<?xml version="1.0" encoding="utf-8"?>
<!-- Generator: Adobe Illustrator 25.2.1, SVG Export Plug-In . SVG Version: 6.00 Build 0)  -->
<svg version="1.1" id="Layer_2" xmlns="http://www.w3.org/2000/svg" xmlns:xlink="http://www.w3.org/1999/xlink" x="0px" y="0px"
	 viewBox="0 0 1972.21 2000" style="enable-background:new 0 0 1972.21 2000;" xml:space="preserve">
<style type="text/css">
	.st0{fill:#1F0F0A;}
	.st1{fill:#FF8F6E;}
	.st2{fill:#E68164;}
	.st3{fill:#000724;}
	.st4{fill:#000F4E;}
	.st5{fill:#2F4394;}
	.st6{fill:#5281EA;}
	.st7{fill:#F0A355;}
	.st8{fill:#66A2FE;}
	.st9{fill:#FFFFFF;}
	.st10{fill:#2A345E;}
	.st11{fill:#3E4D8C;}
	.st12{fill:#FFD35A;}
	.st13{fill:#152B8A;}
	.st14{fill:#4B5EAB;}
	.st15{fill:#3B4A87;}
	.st16{fill:#C9B8B3;}
	.st17{fill:#AEB3CC;}
	.st18{fill:#FF852F;}
	.st19{fill:#85B5FF;}
	.st20{fill:#8A6BFE;}
</style>
<g>
	<path class="st0" d="M590.83,460.64c-0.35,0-10.66-2.13-30.62-6.34c-0.48-0.1-0.78-0.57-0.68-1.05c0.1-0.48,0.57-0.78,1.05-0.68
		c11.75,2.48,29.53,6.2,30.35,6.31c0.49,0,0.84,0.39,0.84,0.88C591.76,460.24,591.32,460.64,590.83,460.64z"/>
	<g>
		<path class="st0" d="M451.39,364.72c-8.21-6.28-6.76-18.35-6.76-18.35c-7.24,10.14-4.83,17.39,4.83,20.77
			c-14.97,11.11-20.28,27.05-16.9,50.71c3.38,23.66,11.59,49.26,11.59,49.26l68.58,11.11l55.06-65.68
			c6.76-13.04,6.28-28.01,6.28-28.01c1.93,6.76,10.14,2.41,9.66-14.49c-0.48-16.9-22.7-17.39-44.91-19.32
			c-22.22-1.93-34.29-13.04-54.57-9.66C463.95,344.43,452.36,351.19,451.39,364.72z"/>
		<path class="st1" d="M571,513.3c-6.76,17.71-21.57,17.71-31.55,19.32l-1.16,25.23l-70.64-12.35c0,0,0.97-32.52-8.05-63.75
			c-9.34,11.27-33.81,1.61-33.16-20.61c0.64-22.22,22.86-25.44,32.52-9.66c9.66,2.9,10.95-6.12,10.95-6.12
			c7.73,4.51,13.84,0,12.23-13.52c-1.61-13.52,8.37-42.18-2.9-41.86c4.19-2.25,9.02-4.19,11.27-6.76c2.25-2.58,2.9-15.13,2.9-15.13
			c10.62,12.56,47.33,17.06,50.55,13.2c3.22-3.86,2.58-9.02,2.58-9.02c7.08,5.15,19.32,16.74,22.22,30.26s0.97,45.08,0.97,56.67
			C569.71,470.8,575.51,499.46,571,513.3z"/>
		<g>
			<path class="st2" d="M538.7,1727.46c-14.12,35.88-10,65.89-10,65.89h221.77c-8.24-24.12-58.24-55.88-102.36-62.36
				c-44.12-6.47-53.53-29.41-53.53-29.41L538.7,1727.46z"/>
			<path class="st3" d="M536.15,1734.45c2.45,2.63,5.69,6.4,9.83,11.76h74.78c0,0-2.59-12.24,5.84-20.41
				c6.04,2.14,13.15,3.96,21.51,5.19c44.12,6.47,94.12,38.24,102.36,62.36H528.7C528.7,1793.34,525.11,1767.15,536.15,1734.45z"/>
		</g>
		<path class="st3" d="M473.77,967.86c-17.96,125.7,46.49,778.42,46.49,778.42l105.05-20.65l-2.69-19.75l-15.26-10.77l6.29-8.98
			l-3.59-690.75L473.77,967.86z"/>
		<g>
			<path class="st1" d="M413.4,1727.46c-14.12,35.88-10,65.89-10,65.89h221.77c-8.24-24.12-58.24-55.88-102.36-62.36
				c-44.12-6.47-53.53-29.41-53.53-29.41L413.4,1727.46z"/>
			<path class="st4" d="M410.85,1734.45c2.45,2.63,5.69,6.4,9.83,11.76h74.78c0,0-2.59-12.24,5.84-20.41
				c6.04,2.14,13.15,3.96,21.51,5.19c44.12,6.47,94.12,38.24,102.36,62.36H403.4C403.4,1793.34,399.81,1767.15,410.85,1734.45z"/>
			<path class="st5" d="M414.51,1781.72h159.27c0.45,0,0.83-0.34,0.88-0.78c0.05-0.45-0.24-0.86-0.67-0.96
				c-0.59-0.14-59.18-14.01-71.42-29.69c-0.3-0.38-0.85-0.45-1.24-0.15c-0.38,0.3-0.45,0.85-0.15,1.24
				c10.16,13.01,49.3,24.35,65.46,28.58H414.51c-0.49,0-0.88,0.39-0.88,0.88C413.62,1781.33,414.02,1781.72,414.51,1781.72z"/>
			<path class="st5" d="M517.53,1747.09c0.02,0,0.04,0,0.06,0c0.49-0.03,0.85-0.45,0.82-0.94c-0.01-0.13-0.71-12.89,8.95-17
				c0.45-0.19,0.66-0.71,0.47-1.16c-0.19-0.45-0.71-0.66-1.16-0.47c-10.82,4.6-10.03,18.6-10.02,18.74
				C516.68,1746.73,517.06,1747.09,517.53,1747.09z"/>
			<path class="st5" d="M536.06,1752.6c0.02,0,0.04,0,0.06,0c0.49-0.03,0.85-0.45,0.82-0.94c-0.01-0.13-0.71-12.89,8.95-17
				c0.45-0.19,0.66-0.71,0.47-1.16c-0.19-0.45-0.71-0.66-1.16-0.47c-10.82,4.6-10.03,18.6-10.02,18.74
				C535.21,1752.25,535.59,1752.6,536.06,1752.6z"/>
			<path class="st5" d="M551.28,1758.12c0.02,0,0.04,0,0.06,0c0.49-0.03,0.85-0.45,0.82-0.94c-0.01-0.13-0.71-12.89,8.95-17
				c0.45-0.19,0.66-0.71,0.47-1.16c-0.19-0.45-0.71-0.66-1.16-0.47c-10.82,4.6-10.03,18.6-10.02,18.74
				C550.43,1757.76,550.82,1758.12,551.28,1758.12z"/>
		</g>
		<path class="st4" d="M398.15,978.31c-17.96,125.7-5.39,767.97-5.39,767.97l105.05-20.65l-2.69-19.75l-15.26-10.77l6.28-8.98
			l59.26-600.07c0,0,14.37,5.39,14.37-5.39c0-10.77-1.8-104.15-1.8-104.15L398.15,978.31z"/>
		<path class="st6" d="M403.09,587.17l42.44-14.87c7.32-2.56,12.1-9.62,11.77-17.37l0,0c-0.38-8.9,8.23-15.46,16.71-12.72l3.3,1.07
			c15.83,5.12,42.02,6.12,58.2,2.22l1.18-0.28c7.12-1.72,14.23,2.89,15.57,10.1l0,0c0.72,3.86,3,7.25,6.3,9.38l0,0
			c27.46,14.87,50.66,36.55,67.3,62.99c1.03,1.63,2.03,3.22,3.01,4.75l53.45,83.26l22.45-117.62h31.87l17.06,61.5l-15.26,142.76
			l-15.26,29.83c-11.8,23.06-42.9,27.43-60.6,8.51l-54.33-58.09l7.18,220.87c-76.32,21.55-147.25-1.8-147.25-1.8l3.49,31.36
			l-71.77,2.65l-50.66-163.57c-8.56-30.18-11.85-61.59-9.71-92.89c3.22-47.24,10.51-116.63,26.56-156.77
			C372.72,605.87,386.27,593.07,403.09,587.17z"/>
		<path class="st1" d="M928.16,903.89c0,0-2.35-25.3-7.65-38.83c-5.29-13.53-23.53-17.65-57.06-17.65h-90.25
			c-6.83,0-10.22,8.31-5.31,13.07c3.76,3.64,10.89,6.78,22.61,8.11c25.88,2.94,61.18-2.94,71.77,10.59
			c10.59,13.53,18.24,39.41,18.24,39.41l55.3-8.24L928.16,903.89z"/>
		<polygon class="st1" points="1112.29,524.76 1064.05,478.58 1062.28,526.23 1107.58,567.99 1118.17,559.17 		"/>
		<path class="st2" d="M1374.06,1326.26l38.83,382.37c-37.65,32.94-52.94,67.06-52.94,67.06s-33.24,10-32.35,17.06
			c0,0,67.25,0,72.36,0c17.65-9.71,55.5-48.78,53.38-39.27c-0.88,3.97-1.76,40.15-1.76,40.15h16.32
			c4.85-14.12,21.62-54.27,17.21-74.12c-4.41-19.85-10.59-15.44-12.79-24.71s12.35-145.01,18.24-241.48
			c5.88-96.47-5.88-136.48-5.88-136.48L1374.06,1326.26z"/>
		<path class="st3" d="M1327.59,1792.75c0,0,67.25,0,72.36,0c17.65-9.71,55.5-48.78,53.38-39.27c-0.88,3.97-1.76,40.15-1.76,40.15
			h16.32c4.85-14.12,21.62-54.27,17.21-74.12c-2.78-12.51-6.26-15.39-9.01-18.12c-42.8,24.47-88.09,87.53-116.15,74.3
			C1359.94,1775.69,1326.71,1785.69,1327.59,1792.75z"/>
		<path class="st1" d="M1481.71,1326.26l38.83,382.37c-37.65,32.94-52.94,67.06-52.94,67.06s-33.24,10-32.35,17.06
			c0,0,67.25,0,72.36,0c17.65-9.71,55.5-48.78,53.38-39.27c-0.88,3.97-1.76,40.15-1.76,40.15h16.32
			c4.85-14.12,21.62-54.27,17.21-74.12c-4.41-19.85-10.59-15.44-12.79-24.71c-2.21-9.27,12.35-145.01,18.24-241.48
			c5.88-96.47-5.88-136.48-5.88-136.48L1481.71,1326.26z"/>
		<path class="st4" d="M1435.24,1792.75c0,0,67.25,0,72.36,0c17.65-9.71,55.5-48.78,53.38-39.27c-0.88,3.97-1.76,40.15-1.76,40.15
			h16.32c4.85-14.12,21.62-54.27,17.21-74.12c-2.78-12.51-6.26-15.39-9.01-18.12c-42.8,24.47-88.09,87.53-116.15,74.3
			C1467.6,1775.69,1434.36,1785.69,1435.24,1792.75z"/>
		<path class="st0" d="M1505.83,728.59h81.18c37.06-52.94,20.3-127.06-12.35-177.36c-32.65-50.3-20.29-53.83-15.88-105.89
			c4.41-52.06-21.18-57.36-62.65-76.77c-50.3-25.59-99.71-1.76-107.65,37.94c-7.94,39.71,1.76,52.06-18.53,107.65
			c-20.3,55.59-21.18,117.36-21.18,117.36s75.89,75.89,78.53,78.53C1429.95,712.71,1505.83,728.59,1505.83,728.59z"/>
		<path class="st4" d="M1358.47,825.21c-113.83,176.92-119.12,517.52-119.12,517.52s378.55,6.18,384.72,0
			c17.65-194.13-84.71-520.61-84.71-520.61l-139.42-21.18L1358.47,825.21z"/>
		<path class="st6" d="M1539.8,551.23c21.91,15.59,22.08,29.52,21.91,89.71c-0.29,107.06-3.82,281.78-3.82,281.78h-60.44l-4.41-97.5
			h-134.56c-5.29-48.97-30-96.62-31.77-107.21s8.82-40.59,10.59-45l-101.8,31.11c-15.51,4.74-32.37,0.42-43.69-11.21l-113.05-116.08
			l33.53-52.06l107.65,87.36c49.41-13.24,128.83-60.88,149.42-52.94l11.18,16.77l63.53,5.29l53.83-3.53L1539.8,551.23z"/>
		<path class="st1" d="M1369.36,559.17c-2.35,17.65,7.06,50,58.83,53.53c51.77,3.53,76.11-21.55,111.62-61.47
			c-11.25-4.85-32.8,3.16-52.21,10.88s-7.43-52.58,1.18-65.59c14.34,7.28,26.1-6.4,33.6-22.06c0,0-12.13-0.88-20.3-5.51l-6.84,7.72
			c0,0,2.21-6.84,1.32-11.03c-30.66-10.59-53.38-54.27-38.16-85.15c-26.69,8.97-41.4,23.68-47.87,37.21
			c-6.47,13.53-8.24,25.59-10.88,36.77c-2.65,11.18-7.65,35.88-2.94,55.59c4.71,19.71,18.82,27.06,29.12,26.18
			c-0.29,16.77-5.36,37.3-17.65,37.06C1393.18,572.99,1369.36,559.17,1369.36,559.17z"/>
		<path class="st0" d="M1303.72,726.98c15.6,9.26,6.83,39.98-8.29,60.46c-15.11,20.48-54.12,39.98-54.12,39.98l-64.36-98
			c-1.95-23.89,26.33-56.56,33.15-54.6c-1.46-10.73,5.36-21.45,13.16-21.45c7.8,0,9.75,14.63,30.72,27.3
			C1274.95,693.34,1309.08,700.16,1303.72,726.98z"/>
		<polygon class="st7" points="1476.64,1365.28 1221.7,1365.28 1248.76,989.78 1533.48,989.78 		"/>
		<path class="st8" d="M1247.59,867.42l21.18,18.82l59.64,18.21c11.09,3.39,20.23,11.32,25.14,21.83l98.83,211.58
			c10.86,23.24,3.51,50.93-17.45,65.72h0c-14.81,10.46-33.95,12.61-50.72,5.72l-46.01-18.93l-2.35,47.06l-247.66-7.65l4.71-146.48
			l-58.79,52.02c-11.61,9.18-26.62,12.9-41.18,10.21l0,0c-15.61-2.89-29-12.84-36.27-26.95L855.51,910.8l79.71-8.09l67.65,113.53
			l93.45-115.3c4.63-5.71,11.06-9.66,18.25-11.21l43.61-9.38l31.18-11.77L1247.59,867.42z"/>
		<polygon class="st9" points="870.95,943.01 953.02,932.42 935.22,902.71 855.51,910.8 		"/>
		<rect x="612.85" y="1423.91" class="st10" width="126.84" height="369.43"/>
		
			<rect x="739.7" y="1423.91" transform="matrix(-1 -1.224647e-16 1.224647e-16 -1 1600.2089 3217.2539)" class="st11" width="120.81" height="369.43"/>
		<path class="st12" d="M1449.13,1332.98l52.05-315.7c1.33-16.52,15.79-28.83,32.3-27.51h0c16.52,1.33,28.83,15.79,27.51,32.3
			l-52.05,315.7c-1.33,16.52-15.79,28.83-32.3,27.51l0,0C1460.12,1363.96,1447.8,1349.5,1449.13,1332.98z"/>
		<path class="st7" d="M1309.94,1429.8h-184.71c-16.57,0-30-13.43-30-30v0c0-16.57,13.43-30,30-30h184.71c16.57,0,30,13.43,30,30v0
			C1339.94,1416.36,1326.51,1429.8,1309.94,1429.8z"/>
		<g>
			<path class="st2" d="M859.92,1727.46c14.12,35.88,10,65.89,10,65.89H648.15c8.24-24.12,58.24-55.88,102.36-62.36
				c44.12-6.47,53.53-29.41,53.53-29.41L859.92,1727.46z"/>
			<path class="st3" d="M862.47,1734.45c-2.45,2.63-5.69,6.4-9.83,11.76h-74.78c0,0,2.59-12.24-5.84-20.41
				c-6.04,2.14-13.15,3.96-21.51,5.19c-44.12,6.47-94.12,38.24-102.36,62.36h221.77C869.92,1793.34,873.51,1767.15,862.47,1734.45z"
				/>
			<path class="st13" d="M858.82,1781.72H699.55c-0.45,0-0.83-0.34-0.88-0.78c-0.05-0.45,0.24-0.86,0.67-0.96
				c0.59-0.14,59.18-14.01,71.42-29.69c0.3-0.38,0.85-0.45,1.24-0.15c0.38,0.3,0.45,0.85,0.15,1.24
				c-10.16,13.01-49.3,24.35-65.46,28.58h152.12c0.49,0,0.88,0.39,0.88,0.88C859.7,1781.33,859.31,1781.72,858.82,1781.72z"/>
			<path class="st13" d="M755.8,1747.09c-0.02,0-0.04,0-0.06,0c-0.49-0.03-0.85-0.45-0.82-0.94c0.01-0.13,0.71-12.89-8.95-17
				c-0.45-0.19-0.66-0.71-0.47-1.16c0.19-0.45,0.71-0.66,1.16-0.47c10.82,4.6,10.03,18.6,10.02,18.74
				C756.65,1746.73,756.26,1747.09,755.8,1747.09z"/>
			<path class="st13" d="M737.27,1752.6c-0.02,0-0.04,0-0.06,0c-0.49-0.03-0.85-0.45-0.82-0.94c0.01-0.13,0.71-12.89-8.95-17
				c-0.45-0.19-0.66-0.71-0.47-1.16c0.19-0.45,0.71-0.66,1.16-0.47c10.82,4.6,10.03,18.6,10.02,18.74
				C738.12,1752.25,737.73,1752.6,737.27,1752.6z"/>
			<path class="st13" d="M722.05,1758.12c-0.02,0-0.04,0-0.06,0c-0.49-0.03-0.85-0.45-0.82-0.94c0.01-0.13,0.71-12.89-8.95-17
				c-0.45-0.19-0.66-0.71-0.47-1.16c0.19-0.45,0.71-0.66,1.16-0.47c10.82,4.6,10.03,18.6,10.02,18.74
				C722.9,1757.76,722.51,1758.12,722.05,1758.12z"/>
		</g>
		<path class="st3" d="M1154.05,1240.38c2.35,69.41-22.35,121.18-56.47,129.42c-34.12,8.24-196.48,0-196.48,0l-27.06,365.9
			l-116.48-25.88l20.62-403.09c1.64-32.12,27.75-57.56,59.9-58.37L1154.05,1240.38z"/>
		<path class="st13" d="M900.07,1369.21c-0.04,0-0.09,0-0.13-0.01l-20.74-3.09c-0.48-0.07-0.81-0.52-0.74-1
			c0.07-0.48,0.53-0.8,1-0.74l19.36,2.88l-6.22-20.73c-0.14-0.47,0.12-0.96,0.59-1.1c0.47-0.14,0.96,0.12,1.1,0.59l6.62,22.06
			c0.09,0.29,0.02,0.6-0.18,0.83C900.57,1369.1,900.33,1369.21,900.07,1369.21z"/>
		<g>
			<path class="st1" d="M1038.17,1727.46c14.12,35.88,10,65.89,10,65.89H826.39c8.24-24.12,58.24-55.88,102.36-62.36
				c44.12-6.47,53.53-29.41,53.53-29.41L1038.17,1727.46z"/>
			<path class="st4" d="M1040.72,1734.45c-2.45,2.63-5.69,6.4-9.83,11.76H956.1c0,0,2.59-12.24-5.84-20.41
				c-6.04,2.14-13.15,3.96-21.51,5.19c-44.12,6.47-94.12,38.24-102.36,62.36h221.77
				C1048.17,1793.34,1051.76,1767.15,1040.72,1734.45z"/>
			<path class="st5" d="M1037.06,1781.72H877.79c-0.45,0-0.83-0.34-0.88-0.78c-0.05-0.45,0.24-0.86,0.67-0.96
				c0.59-0.14,59.18-14.01,71.42-29.69c0.3-0.38,0.85-0.45,1.24-0.15c0.38,0.3,0.45,0.85,0.15,1.24
				c-10.16,13.01-49.3,24.35-65.46,28.58h152.12c0.49,0,0.88,0.39,0.88,0.88C1037.95,1781.33,1037.55,1781.72,1037.06,1781.72z"/>
			<path class="st5" d="M934.04,1747.09c-0.02,0-0.04,0-0.06,0c-0.49-0.03-0.85-0.45-0.82-0.94c0.01-0.13,0.71-12.89-8.95-17
				c-0.45-0.19-0.66-0.71-0.47-1.16c0.19-0.45,0.71-0.66,1.16-0.47c10.82,4.6,10.03,18.6,10.02,18.74
				C934.89,1746.73,934.51,1747.09,934.04,1747.09z"/>
			<path class="st5" d="M915.51,1752.6c-0.02,0-0.04,0-0.06,0c-0.49-0.03-0.85-0.45-0.82-0.94c0.01-0.13,0.71-12.89-8.95-17
				c-0.45-0.19-0.66-0.71-0.47-1.16c0.19-0.45,0.71-0.66,1.16-0.47c10.82,4.6,10.03,18.6,10.02,18.74
				C916.36,1752.25,915.98,1752.6,915.51,1752.6z"/>
			<path class="st5" d="M900.29,1758.12c-0.02,0-0.04,0-0.06,0c-0.49-0.03-0.85-0.45-0.82-0.94c0.01-0.13,0.71-12.89-8.95-17
				c-0.45-0.19-0.66-0.71-0.47-1.16c0.19-0.45,0.71-0.66,1.16-0.47c10.82,4.6,10.03,18.6,10.02,18.74
				C901.14,1757.76,900.75,1758.12,900.29,1758.12z"/>
		</g>
		<path class="st4" d="M1332.3,1240.38c2.35,69.41-22.35,121.18-56.47,129.42c-34.12,8.24-196.48,0-196.48,0l-27.06,365.9
			l-116.48-25.88l20.62-403.09c1.64-32.12,27.75-57.56,59.9-58.37L1332.3,1240.38z"/>
		<path class="st14" d="M958.68,1155.67H696.46c-4.26,0-7.72-3.46-7.72-7.72V978.67c0-4.26,3.46-7.72,7.72-7.72h262.22
			c4.26,0,7.72,3.46,7.72,7.72v169.27C966.4,1152.21,962.94,1155.67,958.68,1155.67z"/>
		<path class="st11" d="M944.56,1155.67H682.34c-4.26,0-7.72-3.46-7.72-7.72V978.67c0-4.26,3.46-7.72,7.72-7.72h262.22
			c4.26,0,7.72,3.46,7.72,7.72v169.27C952.28,1152.21,948.82,1155.67,944.56,1155.67z"/>
		<rect x="792.05" y="1140.22" class="st14" width="49.86" height="75"/>
		<rect x="788.52" y="1140.22" class="st15" width="49.86" height="75"/>
		<path class="st11" d="M891.25,1225.82h-110.3v-13.24h97.06C885.32,1212.58,891.25,1218.51,891.25,1225.82L891.25,1225.82z"/>
		<path class="st11" d="M1610.76,1250.08H545.57c-6.7,0-12.13-5.43-12.13-12.13l0,0c0-6.7,5.43-12.13,12.13-12.13h1065.19
			c6.7,0,12.13,5.43,12.13,12.13l0,0C1622.9,1244.65,1617.46,1250.08,1610.76,1250.08z"/>
		<path class="st14" d="M706.39,1131.84c0,2.44-1.98,4.41-4.41,4.41c-2.44,0-4.41-1.98-4.41-4.41c0-2.44,1.98-4.41,4.41-4.41
			C704.41,1127.43,706.39,1129.41,706.39,1131.84z"/>
		<path class="st14" d="M725.8,1131.84c0,2.44-1.98,4.41-4.41,4.41s-4.41-1.98-4.41-4.41c0-2.44,1.98-4.41,4.41-4.41
			S725.8,1129.41,725.8,1131.84z"/>
		<path class="st14" d="M745.21,1131.84c0,2.44-1.98,4.41-4.41,4.41s-4.41-1.98-4.41-4.41c0-2.44,1.98-4.41,4.41-4.41
			S745.21,1129.41,745.21,1131.84z"/>
		<path class="st14" d="M736.39,1112.43c0,2.44-1.98,4.41-4.41,4.41c-2.44,0-4.41-1.98-4.41-4.41c0-2.44,1.98-4.41,4.41-4.41
			C734.41,1108.02,736.39,1109.99,736.39,1112.43z"/>
		<path class="st14" d="M716.98,1112.43c0,2.44-1.98,4.41-4.41,4.41c-2.44,0-4.41-1.98-4.41-4.41c0-2.44,1.98-4.41,4.41-4.41
			C715,1108.02,716.98,1109.99,716.98,1112.43z"/>
		<path class="st5" d="M1078.31,1369.21c-0.04,0-0.09,0-0.13-0.01l-20.74-3.09c-0.48-0.07-0.81-0.52-0.74-1
			c0.07-0.48,0.53-0.8,1-0.74l19.36,2.88l-6.22-20.73c-0.14-0.47,0.12-0.96,0.59-1.1c0.47-0.14,0.96,0.12,1.1,0.59l6.62,22.06
			c0.09,0.29,0.02,0.6-0.18,0.83C1078.81,1369.1,1078.57,1369.21,1078.31,1369.21z"/>
		<path class="st12" d="M1470.54,1429.8h-184.71c-16.57,0-30-13.43-30-30v0c0-16.57,13.43-30,30-30h184.71c16.57,0,30,13.43,30,30v0
			C1500.54,1416.36,1487.11,1429.8,1470.54,1429.8z"/>
		<g>
			<path class="st14" d="M1315.28,1663.39c-83.67,0-162.45,31.06-217.45,84.48l21.42,19.67c49.33-48.28,120.42-76.39,196.03-76.39
				c72.87,0,142.29,26.51,191.44,72.05l19.78-21.15C1471.8,1692.29,1395.37,1663.39,1315.28,1663.39z"/>
			<rect x="1291.74" y="1444.48" class="st14" width="30.27" height="315.22"/>
			<rect x="1281.17" y="1743.3" class="st4" width="51.4" height="50.04"/>
			<path class="st11" d="M1306.87,1767.27L1306.87,1767.27c-20.03,0-36.27-16.24-36.27-36.27v-11.04h72.53V1731
				C1343.14,1751.03,1326.9,1767.27,1306.87,1767.27z"/>
			
				<ellipse transform="matrix(0.7071 -0.7071 0.7071 0.7071 -919.6126 1297.5807)" class="st4" cx="1106.51" cy="1758.86" rx="33.64" ry="33.64"/>
			<path class="st14" d="M1106.51,1777.68c-10.38,0-18.82-8.44-18.82-18.82c0-10.38,8.44-18.82,18.82-18.82
				c0.7,0,1.26,0.56,1.26,1.26c0,0.7-0.56,1.26-1.26,1.26c-8.98,0-16.29,7.31-16.29,16.29c0,8.98,7.31,16.29,16.29,16.29
				c8.98,0,16.29-7.31,16.29-16.29c0-0.7,0.56-1.26,1.26-1.26c0.7,0,1.26,0.56,1.26,1.26
				C1125.33,1769.24,1116.89,1777.68,1106.51,1777.68z"/>
			
				<ellipse transform="matrix(0.2298 -0.9732 0.9732 0.2298 -546.6556 2826.9932)" class="st3" cx="1512.7" cy="1758.86" rx="33.64" ry="33.64"/>
			<path class="st14" d="M1512.7,1777.68c-10.38,0-18.82-8.44-18.82-18.82c0-10.38,8.44-18.82,18.82-18.82
				c0.7,0,1.26,0.56,1.26,1.26c0,0.7-0.56,1.26-1.26,1.26c-8.98,0-16.29,7.31-16.29,16.29c0,8.98,7.31,16.29,16.29,16.29
				c8.98,0,16.29-7.31,16.29-16.29c0-0.7,0.56-1.26,1.26-1.26c0.7,0,1.26,0.56,1.26,1.26
				C1531.52,1769.24,1523.08,1777.68,1512.7,1777.68z"/>
			<path class="st11" d="M1358.38,1476.02h-103.02c-26.01,0-47.09-21.08-47.09-47.09v0h197.21v0
				C1405.48,1454.93,1384.39,1476.02,1358.38,1476.02z"/>
		</g>
		<rect x="628.74" y="1453.33" class="st11" width="65.3" height="131.77"/>
		
			<ellipse transform="matrix(0.2298 -0.9732 0.9732 0.2298 -1077.6058 1948.5859)" class="st11" cx="692.27" cy="1655.1" rx="37.65" ry="37.65"/>
		<path class="st14" d="M644.62,1469.8c0,1.95-1.58,3.53-3.53,3.53c-1.95,0-3.53-1.58-3.53-3.53c0-1.95,1.58-3.53,3.53-3.53
			C643.04,1466.27,644.62,1467.85,644.62,1469.8z"/>
		<path class="st14" d="M664.03,1469.8c0,1.95-1.58,3.53-3.53,3.53c-1.95,0-3.53-1.58-3.53-3.53c0-1.95,1.58-3.53,3.53-3.53
			C662.45,1466.27,664.03,1467.85,664.03,1469.8z"/>
		<path class="st14" d="M664.03,1489.21c0,1.95-1.58,3.53-3.53,3.53c-1.95,0-3.53-1.58-3.53-3.53c0-1.95,1.58-3.53,3.53-3.53
			C662.45,1485.68,664.03,1487.26,664.03,1489.21z"/>
		<path class="st14" d="M664.03,1508.62c0,1.95-1.58,3.53-3.53,3.53c-1.95,0-3.53-1.58-3.53-3.53c0-1.95,1.58-3.53,3.53-3.53
			C662.45,1505.09,664.03,1506.67,664.03,1508.62z"/>
		<path class="st14" d="M664.03,1528.04c0,1.95-1.58,3.53-3.53,3.53c-1.95,0-3.53-1.58-3.53-3.53c0-1.95,1.58-3.53,3.53-3.53
			C662.45,1524.51,664.03,1526.09,664.03,1528.04z"/>
		<path class="st14" d="M644.62,1489.21c0,1.95-1.58,3.53-3.53,3.53c-1.95,0-3.53-1.58-3.53-3.53c0-1.95,1.58-3.53,3.53-3.53
			C643.04,1485.68,644.62,1487.26,644.62,1489.21z"/>
		<path class="st14" d="M644.62,1508.62c0,1.95-1.58,3.53-3.53,3.53c-1.95,0-3.53-1.58-3.53-3.53c0-1.95,1.58-3.53,3.53-3.53
			C643.04,1505.09,644.62,1506.67,644.62,1508.62z"/>
		<path class="st14" d="M644.62,1528.04c0,1.95-1.58,3.53-3.53,3.53c-1.95,0-3.53-1.58-3.53-3.53c0-1.95,1.58-3.53,3.53-3.53
			C643.04,1524.51,644.62,1526.09,644.62,1528.04z"/>
		<path class="st14" d="M641.09,1470.68C641.09,1470.68,641.09,1470.68,641.09,1470.68c-0.49,0-0.88-0.4-0.88-0.89l0.48-135.21
			c0.06-17.08,14.01-30.97,31.08-30.97c16.17,0,29.32-13.15,29.32-29.32v-142.45c0-0.49,0.39-0.88,0.88-0.88
			c0.49,0,0.88,0.39,0.88,0.88v142.45c0,17.14-13.94,31.08-31.08,31.08c-16.11,0-29.26,13.11-29.32,29.22l-0.48,135.21
			C641.97,1470.29,641.58,1470.68,641.09,1470.68z"/>
		<path class="st14" d="M660.5,1470.68c-0.49,0-0.88-0.39-0.88-0.88v-33.53c0-17.03,13.85-30.88,30.88-30.88
			c16.06,0,29.12-13.06,29.12-29.12v-244.42c0-0.49,0.39-0.88,0.88-0.88c0.49,0,0.88,0.39,0.88,0.88v244.42
			c0,17.03-13.85,30.88-30.88,30.88c-16.06,0-29.12,13.06-29.12,29.12v33.53C661.39,1470.29,660.99,1470.68,660.5,1470.68z"/>
		<g>
			<path class="st1" d="M1153.17,1031.84l-22.94-56.18l-46.18-4.12l-27.06,22.35c-0.88,7.06,11.47,9.12,20,4.12
				c8.53-5,10-6.47,10-6.47l12.94,3.24l-14.71,1.76c0,0-24.41,18.82-25,19.71c-1.47,5.88,5.88,9.71,12.06,7.06
				c-5.29,12.06,8.82,12.06,12.65,10.59c-2.35,10.29,9.71,11.77,21.47,12.94c11.76,1.18,13.82,20.59,15.29,30.59
				c1.47,10,14.41,16.47,30.3,16.47l43.83,20.44l12.35-56.91L1153.17,1031.84z"/>
			<path class="st16" d="M1077.87,1019.12c-0.27,0-0.54-0.12-0.71-0.36c-0.29-0.39-0.2-0.95,0.19-1.23l13.24-9.71
				c0.15-0.11,0.33-0.17,0.52-0.17h13.9c0.49,0,0.88,0.39,0.88,0.88c0,0.49-0.39,0.88-0.88,0.88h-13.61l-13,9.54
				C1078.24,1019.06,1078.06,1019.12,1077.87,1019.12z"/>
			<path class="st16" d="M1088.24,1032.35c-0.26,0-0.51-0.11-0.68-0.32c-0.31-0.38-0.25-0.93,0.12-1.24l8.6-7.06
				c0.16-0.13,0.38-0.2,0.58-0.2l9.93,0.22c0.49,0.01,0.87,0.41,0.86,0.9c-0.01,0.48-0.4,0.86-0.88,0.86c-0.01,0-0.01,0-0.02,0
				l-9.6-0.21l-8.35,6.85C1088.64,1032.29,1088.44,1032.35,1088.24,1032.35z"/>
			<path class="st16" d="M1120.89,991.76c-0.26,0-0.52-0.11-0.69-0.34c-1.88-2.39-2.22-5.46-0.85-7.82
				c1.29-2.23,3.81-3.29,6.74-2.86c0.48,0.07,0.82,0.52,0.74,1c-0.07,0.48-0.52,0.81-1,0.74c-2.23-0.33-4.03,0.4-4.96,2
				c-1,1.73-0.73,4.03,0.71,5.84c0.3,0.38,0.24,0.94-0.15,1.24C1121.28,991.7,1121.08,991.76,1120.89,991.76z"/>
			<path class="st16" d="M1123.33,1007.22c-0.21,0.15-0.49,0.21-0.76,0.13c-2.92-0.86-4.96-3.17-5.21-5.89
				c-0.24-2.56,1.21-4.89,3.85-6.23c0.44-0.22,0.97-0.05,1.19,0.39c0.22,0.44,0.05,0.96-0.39,1.19c-2.01,1.02-3.06,2.66-2.89,4.5
				c0.18,2,1.74,3.71,3.95,4.36c0.47,0.14,0.73,0.63,0.6,1.1C1123.61,1006.94,1123.48,1007.11,1123.33,1007.22z"/>
			<path class="st16" d="M1123.62,1024.13c-0.21,0.15-0.49,0.21-0.76,0.13c-2.92-0.86-4.96-3.17-5.21-5.89
				c-0.24-2.56,1.21-4.89,3.85-6.23c0.44-0.22,0.97-0.05,1.19,0.39c0.22,0.44,0.05,0.96-0.39,1.19c-2.01,1.02-3.06,2.66-2.89,4.5
				c0.18,2,1.74,3.71,3.95,4.36c0.47,0.14,0.73,0.63,0.6,1.1C1123.9,1023.86,1123.78,1024.02,1123.62,1024.13z"/>
		</g>
		<path class="st4" d="M1301.71,1011.84c-0.45,0-0.84-0.35-0.88-0.81c-0.24-2.74-5.36-67.53,36.86-96.11
			c0.41-0.27,0.95-0.17,1.23,0.24c0.27,0.4,0.17,0.95-0.24,1.23c-41.37,28-36.32,91.79-36.09,94.49c0.04,0.49-0.32,0.91-0.8,0.96
			C1301.76,1011.84,1301.73,1011.84,1301.71,1011.84z"/>
		<path class="st4" d="M1332.15,1092.06c-0.34,0-0.66-0.19-0.81-0.52l-23.38-52.58c-0.2-0.45,0-0.97,0.45-1.16
			c0.45-0.2,0.97,0,1.16,0.45l23.38,52.58c0.2,0.45,0,0.97-0.45,1.17C1332.39,1092.04,1332.27,1092.06,1332.15,1092.06z"/>
		<polygon class="st9" points="1238.32,1053.9 1222.88,1136.11 1193.91,1122.43 1211.26,1043.31 		"/>
		<path class="st4" d="M1332.88,1187.73c-0.12,0-0.25-0.03-0.37-0.08l-138.83-64.12c-0.37-0.17-0.58-0.58-0.49-0.99l17.06-79.42
			c0.05-0.25,0.22-0.47,0.45-0.59c0.23-0.12,0.5-0.14,0.74-0.04l150.59,59.41c0.45,0.18,0.68,0.69,0.5,1.15
			c-0.18,0.45-0.69,0.67-1.14,0.5l-149.63-59.03l-16.69,77.71l138.19,63.82c0.44,0.2,0.64,0.73,0.43,1.17
			C1333.54,1187.54,1333.22,1187.73,1332.88,1187.73z"/>
		<circle class="st4" cx="1222.81" cy="1056.62" r="3.97"/>
		<path class="st4" d="M876.69,925.36c0,2.19-1.78,3.97-3.97,3.97s-3.97-1.78-3.97-3.97s1.78-3.97,3.97-3.97
			S876.69,923.17,876.69,925.36z"/>
		<path class="st9" d="M1170.75,935.95l8.9,20.88l20.15-15.88l6.62,17.35c15-8.82,62.36-72.06,62.36-72.06l-21.18-18.82l-58.24,1.18
			l-31.18,11.77l-2.94,67.65L1170.75,935.95z"/>
		<path class="st17" d="M1206.41,959.19c-0.36,0-0.69-0.22-0.82-0.57l-14.57-38.28l-35.23,28.36c-0.38,0.3-0.94,0.24-1.24-0.13
			c-0.31-0.38-0.25-0.93,0.13-1.24l36.18-29.12c0.22-0.18,0.51-0.24,0.78-0.16c0.27,0.07,0.49,0.27,0.59,0.54l15,39.41
			c0.17,0.46-0.06,0.97-0.51,1.14C1206.62,959.17,1206.51,959.19,1206.41,959.19z"/>
		<path class="st4" d="M1020.52,1043.6c-0.28,0-0.56-0.14-0.73-0.39l-15.48-22.96l-0.26,18.66c-0.01,0.49-0.44,0.83-0.89,0.87
			c-0.49-0.01-0.88-0.41-0.87-0.89l0.29-21.47c0.01-0.39,0.26-0.72,0.63-0.83c0.37-0.11,0.77,0.03,0.98,0.35l17.06,25.3
			c0.27,0.4,0.17,0.95-0.24,1.23C1020.86,1043.55,1020.69,1043.6,1020.52,1043.6z"/>
		<path class="st4" d="M685.2,749.49c0.23-0.18,0.37-0.46,0.35-0.77l-1.73-28.13l11.77,14.9c0.31,0.39,0.87,0.4,1.26,0.15
			c0.39-0.31,0.46-0.87,0.15-1.26l-13.55-17.15c-0.24-0.31-0.66-0.42-1.02-0.28c-0.37,0.14-0.6,0.5-0.58,0.89l1.91,30.99
			c0.03,0.49,0.46,0.87,0.95,0.84C684.9,749.66,685.07,749.6,685.2,749.49z"/>
		<path class="st4" d="M1224.97,644.95c-0.26-0.11-0.46-0.35-0.52-0.65l-4.98-27.24l-7.71,16.99c-0.2,0.44-0.73,0.59-1.17,0.44
			c-0.44-0.2-0.64-0.72-0.44-1.17l8.88-19.55c0.16-0.35,0.53-0.56,0.91-0.51c0.39,0.05,0.69,0.34,0.76,0.72l5.49,30.01
			c0.09,0.48-0.23,0.94-0.71,1.03C1225.3,645.04,1225.12,645.02,1224.97,644.95z"/>
		<path class="st4" d="M1099.49,961.98c-0.01,0-0.02,0-0.03,0c-0.49-0.02-0.87-0.42-0.85-0.91c0.01-0.4,1.48-40.2,14.21-65.66
			c0.22-0.44,0.75-0.61,1.18-0.39c0.44,0.22,0.61,0.75,0.39,1.18c-12.56,25.13-14.01,64.54-14.03,64.93
			C1100.36,961.61,1099.97,961.98,1099.49,961.98z"/>
		<path class="st1" d="M1186.95,846.18c0,0-1.71,12.43-5.28,21.86c0,0-9.83,27.63,2.6,39.82c12.43,12.19,58.26-12.92,61.76-41.12
			c-2.84-19.91,4.55-48.59,8.45-55.66c19.5,10.24,32.18-10.24,31.93-23.16c-0.24-12.92-14.87-11.46-18.04-8.29
			c-3.17,3.17-8.53,10.73-15.85,5.61c-7.31-5.12,3.9-39.25,16.09-54.12c-23.65,3.17-52.65-20.23-56.56-41.69
			c-15.36,3.9-27.79,18.77-35.59,34.13c-7.8,15.36-11.46,30.23-17.55,49.49c-6.09,19.26-13.65,41.93-0.98,58.02
			C1170.62,847.16,1186.95,846.18,1186.95,846.18z"/>
		<path class="st0" d="M1222.78,770.89c-0.95,3.23-3.13,5.43-4.88,4.91c-1.74-0.51-2.39-3.54-1.44-6.77
			c0.95-3.23,3.13-5.43,4.88-4.91C1223.08,764.63,1223.73,767.66,1222.78,770.89z"/>
		<path class="st0" d="M1217.4,779.23c-0.77,0-1.55-0.14-2.3-0.44c-0.3-0.12-0.45-0.46-0.33-0.76c0.12-0.3,0.46-0.45,0.76-0.33
			c2.55,1.01,5.49-0.19,7-2.83c0.16-0.28,0.52-0.38,0.8-0.22c0.28,0.16,0.38,0.52,0.22,0.8
			C1222.18,777.85,1219.81,779.23,1217.4,779.23z"/>
		<path class="st0" d="M1187.19,757.48c-0.95,3.23-3.13,5.43-4.88,4.91c-1.74-0.51-2.39-3.54-1.44-6.77
			c0.95-3.23,3.13-5.43,4.88-4.91C1187.49,751.22,1188.13,754.25,1187.19,757.48z"/>
		<path class="st0" d="M1181.81,765.82c-0.77,0-1.55-0.14-2.3-0.44c-0.3-0.12-0.45-0.46-0.33-0.76c0.12-0.3,0.46-0.45,0.76-0.33
			c2.55,1.01,5.49-0.19,7-2.83c0.16-0.28,0.52-0.38,0.8-0.22c0.28,0.16,0.38,0.52,0.22,0.8
			C1186.59,764.44,1184.22,765.82,1181.81,765.82z"/>
		<path class="st0" d="M1184.03,791.26c-0.13,0-0.26-0.03-0.38-0.1c-10.84-6.09-14.69-15.63-13.49-18.2
			c0.63-1.35,2.38-1.2,5.04-0.96c2.74,0.24,6.49,0.56,11.12-0.33c7.8-1.5,12.73-11.01,13.51-26.09c0.02-0.43,0.43-0.76,0.82-0.74
			c0.43,0.02,0.76,0.39,0.74,0.82c-0.82,15.86-6.2,25.9-14.77,27.54c-4.85,0.93-8.88,0.58-11.55,0.35
			c-1.48-0.13-3.32-0.29-3.49,0.07c-0.56,1.2,2.11,10.15,12.84,16.18c0.38,0.21,0.51,0.69,0.3,1.06
			C1184.56,791.12,1184.3,791.26,1184.03,791.26z"/>
		<path class="st0" d="M1193.51,812.96c-5.48,0-20.53-2.72-23.76-12.73c-0.13-0.41,0.09-0.85,0.5-0.98c0.41-0.13,0.85,0.1,0.98,0.5
			c3.33,10.33,21.19,12.26,23.53,11.56c0.41-0.12,0.85,0.11,0.97,0.52c0.12,0.41-0.11,0.85-0.52,0.97
			C1194.89,812.9,1194.3,812.96,1193.51,812.96z"/>
		<path class="st16" d="M1182.18,816.47c-4.29,0-9.32-2.02-10.81-5.49c-0.17-0.4,0.01-0.86,0.41-1.03c0.39-0.17,0.85,0.01,1.03,0.41
			c1.36,3.14,6.62,4.89,10.5,4.49c0.42-0.04,0.81,0.27,0.86,0.7c0.04,0.43-0.27,0.81-0.7,0.86
			C1183.04,816.45,1182.61,816.47,1182.18,816.47z"/>
		<path class="st0" d="M1240.66,762.49c-3.74-8.78-13.49-12.35-15.6-12.84C1237.9,743.47,1241.31,751.23,1240.66,762.49z"/>
		<path class="st0" d="M1231.89,746.72c-2.84-0.16-6.83,2.93-6.83,2.93C1225.55,745.34,1229.29,745.18,1231.89,746.72z"/>
		<path class="st0" d="M1180.75,734.83c9.62-2.6,16.7,2.74,16.7,2.74C1195.19,726.81,1187.63,728.16,1180.75,734.83z"/>
		<path class="st0" d="M1195.36,730.9c2.01,2.26,2.1,6.67,2.1,6.67C1199.7,733.59,1198.35,731.68,1195.36,730.9z"/>
		<path class="st16" d="M1196.19,845.57c-0.76,0-1.49-0.02-2.22-0.07c-0.43-0.03-0.76-0.4-0.73-0.83c0.03-0.43,0.42-0.77,0.83-0.73
			c14.07,0.92,33.65-7.66,38.55-15.01c0.24-0.36,0.72-0.46,1.08-0.22c0.36,0.24,0.46,0.72,0.22,1.08
			C1229.06,837.09,1210.5,845.57,1196.19,845.57z"/>
		<path class="st0" d="M1250.34,794.06c-3.17,0-5.32-1.6-5.35-1.62c-0.34-0.26-0.41-0.75-0.15-1.09c0.26-0.34,0.75-0.41,1.09-0.15
			c0.16,0.12,3.41,2.49,7.72,0.6c-1.56-0.3-3.27-1.05-4.7-2.14c-2.31-1.76-3.32-4.06-2.79-6.31c0.1-0.42,0.52-0.67,0.94-0.58
			c0.42,0.1,0.68,0.52,0.58,0.94c-0.53,2.21,1.16,3.9,2.22,4.7c2.29,1.75,5.27,2.36,6.4,1.74c0.35-0.2,0.8-0.08,1.02,0.25
			c0.22,0.34,0.15,0.79-0.16,1.04C1254.67,793.45,1252.31,794.06,1250.34,794.06z"/>
		<path class="st0" d="M1248.73,798.02c-1.08,0-3.07-0.35-4.95-2.52c-0.28-0.33-0.25-0.82,0.08-1.1c0.33-0.28,0.82-0.25,1.1,0.08
			c2.07,2.38,4.15,1.97,4.24,1.95c0.42-0.08,0.84,0.17,0.93,0.59c0.09,0.42-0.16,0.83-0.58,0.93
			C1249.5,797.95,1249.2,798.02,1248.73,798.02z"/>
		<path class="st16" d="M1283.19,792.17c-2.55-4.61-6.12-5.59-8.7-5.59c-0.02,0-0.05,0-0.07,0c-5.9,0.04-12.27,5.15-14.79,9.87
			c-0.2,0.38-0.06,0.85,0.32,1.06c0.12,0.06,0.24,0.09,0.37,0.09c0.28,0,0.55-0.15,0.69-0.41c1.17-2.18,3.22-4.46,5.66-6.18
			c3.88-0.51,6.47,0.72,7.1,3.35c0.73,3.02-1.47,7.33-5.91,8.91c-0.41,0.14-0.62,0.59-0.47,1c0.11,0.32,0.41,0.52,0.73,0.52
			c0.09,0,0.18-0.01,0.26-0.05c5.4-1.93,7.79-7.08,6.9-10.75c-0.64-2.66-2.76-4.26-5.83-4.58c1.63-0.76,3.32-1.26,4.98-1.27
			c3.19-0.05,5.63,1.59,7.39,4.79c0.21,0.38,0.68,0.51,1.06,0.31C1283.27,793.03,1283.4,792.55,1283.19,792.17z"/>
		<path class="st16" d="M1515.63,479.87c-2.3-4.18-5.54-5.06-7.87-5.06c-0.02,0-0.04,0-0.06,0c-5.34,0.04-11.1,4.66-13.38,8.93
			c-0.18,0.34-0.05,0.77,0.29,0.95c0.11,0.06,0.22,0.08,0.33,0.08c0.25,0,0.5-0.14,0.62-0.37c1.06-1.98,2.92-4.03,5.12-5.59
			c3.51-0.46,5.85,0.65,6.43,3.04c0.66,2.74-1.33,6.63-5.35,8.07c-0.37,0.13-0.56,0.53-0.43,0.9c0.1,0.29,0.37,0.47,0.66,0.47
			c0.08,0,0.16-0.01,0.24-0.04c4.89-1.74,7.05-6.41,6.25-9.73c-0.58-2.4-2.5-3.86-5.28-4.15c1.47-0.69,3-1.14,4.5-1.15
			c2.89-0.04,5.09,1.44,6.69,4.33c0.19,0.34,0.62,0.46,0.96,0.28C1515.69,480.64,1515.82,480.21,1515.63,479.87z"/>
		<path class="st0" d="M1276.42,729.02c-0.25,0-0.48-0.16-0.56-0.41c-0.1-0.31,0.07-0.64,0.38-0.74c13.64-4.39,21.66-2.77,22-2.7
			c0.32,0.07,0.52,0.38,0.45,0.69c-0.07,0.32-0.38,0.52-0.69,0.45c-0.08-0.02-8.08-1.61-21.4,2.67
			C1276.54,729.02,1276.48,729.02,1276.42,729.02z"/>
		<path class="st0" d="M1467.23,447.99c-11.91-11.47-22.94-9.27-22.94-9.27C1447.82,433.21,1454.65,429.46,1467.23,447.99z"/>
		<ellipse class="st0" cx="1447.26" cy="460.4" rx="3.31" ry="5.35"/>
		<path class="st0" d="M1417.59,451.9c0,2.95-1.48,5.35-3.31,5.35c-1.83,0-3.31-2.4-3.31-5.35c0-2.95,1.48-5.35,3.31-5.35
			C1416.11,446.56,1417.59,448.95,1417.59,451.9z"/>
		<path class="st0" d="M1411.42,481.93c-0.1,0-0.2-0.02-0.3-0.07c-1.86-0.87-6.87-5.18-9.5-9.65c-0.5-0.84-0.51-1.85-0.04-2.71
			c0.49-0.89,1.44-1.46,2.47-1.49c11.02-0.31,19.02-9.6,19.02-22.1c0-0.39,0.32-0.71,0.71-0.71c0.39,0,0.71,0.32,0.71,0.71
			c0,13.08-8.77,23.18-20.4,23.51c-0.54,0.02-1.02,0.3-1.27,0.76c-0.23,0.42-0.22,0.89,0.02,1.31c2.45,4.16,7.21,8.3,8.88,9.08
			c0.35,0.16,0.51,0.58,0.34,0.94C1411.94,481.78,1411.68,481.93,1411.42,481.93z"/>
		<path class="st0" d="M1426.56,499.91c-6.01,0-11.5-2.33-15.39-5.72c-0.29-0.26-0.32-0.7-0.07-1c0.26-0.3,0.7-0.32,1-0.07
			c6.36,5.54,17.29,8.07,27.38,1.27c0.32-0.22,0.76-0.13,0.98,0.19c0.22,0.32,0.13,0.76-0.19,0.98
			C1435.72,498.63,1431,499.91,1426.56,499.91z"/>
		<path class="st0" d="M1407.01,431c10.81-1.99,15.66,2.87,15.66,2.87C1420.46,425.27,1414.95,425.93,1407.01,431z"/>
		
			<ellipse transform="matrix(0.9239 -0.3827 0.3827 0.9239 -77.7426 608.0846)" class="st9" cx="1489.66" cy="499.46" rx="7.65" ry="7.65"/>
		<path class="st16" d="M1431.93,534.95c-0.33,0-0.62-0.22-0.69-0.56c-0.08-0.38,0.16-0.76,0.54-0.84
			c23.78-5.19,41.61-23.01,41.78-23.19c0.27-0.28,0.72-0.28,1-0.01c0.28,0.27,0.28,0.72,0.01,1c-0.18,0.18-18.29,18.3-42.49,23.58
			C1432.03,534.94,1431.98,534.95,1431.93,534.95z"/>
		<path class="st1" d="M1503.48,922.72c0,0,1.76,34.12-9.41,32.94c-11.18-1.18-43.53,4.71-50,10c-6.47,5.29-9.41,30.59-5.88,36.47
			c3.53,5.88,10.59,3.24,11.47-0.59c2.65,7.06,10.59,6.18,13.53-0.29c2.35,8.24,11.47,5.88,13.24-0.88
			c1.18,6.77,7.94,8.82,10.59,2.06c2.65-6.76,2.94-13.24,6.47-13.24s47.35,5.59,55.88-7.65c8.53-13.24,5.88-58.24,5.88-58.24
			L1503.48,922.72z"/>
		<path class="st16" d="M1448.7,995.78c-0.02,0-0.04,0-0.07,0c-0.39-0.04-0.67-0.38-0.64-0.77c0.01-0.12,1.12-12.04,2.66-20.14
			c0.07-0.38,0.44-0.64,0.82-0.56c0.38,0.07,0.64,0.44,0.56,0.82c-1.52,8.04-2.63,19.89-2.64,20.01
			C1449.37,995.5,1449.06,995.78,1448.7,995.78z"/>
		<path class="st16" d="M1463.99,997.84c-0.02,0-0.04,0-0.07,0c-0.39-0.04-0.67-0.38-0.64-0.77c0.01-0.12,1.12-12.04,2.66-20.14
			c0.07-0.38,0.44-0.64,0.82-0.56c0.38,0.07,0.64,0.44,0.56,0.82c-1.52,8.04-2.63,19.89-2.64,20.01
			C1464.66,997.56,1464.35,997.84,1463.99,997.84z"/>
		<path class="st16" d="M1477.38,996.07c-0.02,0-0.04,0-0.07,0c-0.39-0.04-0.67-0.38-0.64-0.77c0.01-0.12,0.36-7.54,1.89-15.64
			c0.07-0.38,0.44-0.64,0.82-0.56c0.38,0.07,0.64,0.44,0.56,0.82c-1.52,8.04-1.86,15.39-1.87,15.51
			C1478.04,995.8,1477.74,996.07,1477.38,996.07z"/>
		<path class="st16" d="M1525.03,958.28c-0.02,0-0.05,0-0.07,0c-15.44-1.52-25.42-1.54-25.52-1.54c-0.39,0-0.71-0.32-0.71-0.71
			c0-0.39,0.32-0.71,0.71-0.71c0.1,0,10.14,0.02,25.66,1.55c0.39,0.04,0.67,0.38,0.63,0.77
			C1525.69,958,1525.39,958.28,1525.03,958.28z"/>
		<path class="st16" d="M1452.24,968.41c-0.69,0-1.34-0.11-1.91-0.34c-1.08-0.44-1.73-1.3-1.89-2.46c-0.05-0.39,0.22-0.74,0.61-0.79
			c0.36-0.05,0.74,0.22,0.79,0.61c0.09,0.65,0.42,1.09,1.03,1.34c1.55,0.64,4.5-0.09,6.45-1.59c0.31-0.24,0.75-0.18,0.99,0.13
			c0.24,0.31,0.18,0.75-0.13,0.99C1456.62,967.49,1454.27,968.41,1452.24,968.41z"/>
		<path class="st16" d="M1464.22,970.24c-0.69,0-1.34-0.11-1.91-0.34c-1.08-0.44-1.73-1.3-1.89-2.46c-0.05-0.39,0.22-0.74,0.61-0.79
			c0.36-0.05,0.74,0.22,0.79,0.61c0.09,0.65,0.42,1.09,1.03,1.34c1.55,0.64,4.5-0.09,6.45-1.59c0.31-0.24,0.75-0.18,0.99,0.13
			c0.24,0.31,0.18,0.75-0.13,0.99C1468.6,969.33,1466.25,970.24,1464.22,970.24z"/>
		<path class="st16" d="M1476.21,972.6c-0.69,0-1.34-0.11-1.91-0.34c-1.08-0.44-1.73-1.3-1.89-2.46c-0.05-0.39,0.22-0.74,0.61-0.79
			c0.36-0.05,0.74,0.22,0.79,0.61c0.09,0.65,0.42,1.09,1.03,1.34c1.55,0.64,4.5-0.09,6.45-1.59c0.31-0.24,0.75-0.18,0.99,0.13
			c0.24,0.31,0.18,0.75-0.13,0.99C1480.59,971.68,1478.24,972.6,1476.21,972.6z"/>
		<path class="st16" d="M1489.22,976.2c-0.69,0-1.34-0.11-1.91-0.34c-1.08-0.44-1.73-1.3-1.89-2.46c-0.05-0.39,0.22-0.74,0.61-0.79
			c0.36-0.05,0.74,0.22,0.79,0.61c0.09,0.65,0.42,1.09,1.03,1.34c1.55,0.64,4.5-0.09,6.45-1.59c0.31-0.24,0.75-0.18,0.99,0.13
			c0.24,0.31,0.18,0.75-0.13,0.99C1493.6,975.28,1491.25,976.2,1489.22,976.2z"/>
		<path class="st4" d="M1340.53,664.76c-0.15,0-0.31-0.04-0.45-0.12c-0.42-0.25-0.56-0.79-0.31-1.21
			c0.16-0.27,16.39-27.77,18.11-52.55c0.03-0.49,0.42-0.84,0.94-0.82c0.49,0.03,0.85,0.46,0.82,0.94
			c-1.76,25.21-18.19,53.06-18.36,53.33C1341.12,664.61,1340.83,664.76,1340.53,664.76z"/>
		<path class="st4" d="M1506.42,634.76c-0.02,0-0.04,0-0.06,0c-0.49-0.03-0.86-0.45-0.83-0.94c0.04-0.56,3.97-56.59,39.29-75.43
			c0.43-0.23,0.96-0.07,1.19,0.36c0.23,0.43,0.07,0.96-0.36,1.19c-34.45,18.37-38.33,73.43-38.36,73.99
			C1507.27,634.4,1506.88,634.76,1506.42,634.76z"/>
		<path class="st4" d="M1492.89,822.56c-0.48,0-0.87-0.38-0.88-0.86l-1.76-81.18c-0.01-0.49,0.38-0.89,0.86-0.9
			c0.48,0.04,0.89,0.38,0.9,0.86l1.76,81.18c0.01,0.49-0.38,0.89-0.86,0.9C1492.9,822.56,1492.9,822.56,1492.89,822.56z"/>
		<path class="st12" d="M907.28,478.93v172.25c0,6.85,5.56,12.41,12.41,12.41h57.18c-1.79-4.51-2.59-9.52-2.01-14.8
			c1.65-15.22,14.53-27.22,29.83-27.76c17.71-0.63,32.27,13.55,32.27,31.12c0,4.04-0.79,7.89-2.2,11.43h57.18
			c6.85,0,12.41-5.56,12.41-12.41V478.93c0-6.85-5.56-12.41-12.41-12.41H919.69C912.83,466.52,907.28,472.07,907.28,478.93z"/>
		<path class="st18" d="M926.98,530.35c-5.21,0-10.12,1.31-14.41,3.61v-55.4c0-6.65-5.39-12.04-12.04-12.04H733.43
			c-6.65,0-12.04,5.39-12.04,12.04v167.11c0,6.65,5.39,12.04,12.04,12.04h167.11c6.65,0,12.04-5.39,12.04-12.04v-57.75
			c4.3,2.3,9.2,3.61,14.41,3.61c16.89,0,30.59-13.7,30.59-30.59C957.57,544.04,943.88,530.35,926.98,530.35z"/>
		<path class="st12" d="M785.21,642.26c0,5.21,1.31,10.12,3.61,14.41h-55.4c-6.65,0-12.04,5.39-12.04,12.04v167.11
			c0,6.65,5.39,12.04,12.04,12.04h167.11c6.65,0,12.04-5.39,12.04-12.04V668.71c0-6.65-5.39-12.04-12.04-12.04h-57.75
			c2.3-4.3,3.61-9.2,3.61-14.41c0-16.89-13.7-30.59-30.59-30.59C798.91,611.67,785.21,625.37,785.21,642.26z"/>
		<path class="st1" d="M1037.72,466.08c0,0,1.76,39.27-3.53,43.24c-5.29,3.97-11.03,0-12.35-4.41c-4.85,9.27-15,6.62-16.32,0.88
			c-4.41,8.82-15,2.65-15.88-1.32c-3.09,9.27-11.91,3.53-14.12-1.76c-2.21-5.29-2.3-38.5-1.76-43.24
			C974.85,449.75,1036.4,441.37,1037.72,466.08z"/>
		<path class="st16" d="M1028.98,464.48c-1.81,0-4.05-0.9-5.81-3.49c-0.27-0.4-0.17-0.95,0.24-1.23c0.4-0.27,0.95-0.17,1.23,0.24
			c1.61,2.38,3.64,2.93,5,2.65c1.02-0.21,1.76-0.87,1.93-1.75c0.09-0.48,0.56-0.79,1.04-0.69c0.48,0.1,0.79,0.56,0.69,1.04
			c-0.32,1.58-1.59,2.78-3.32,3.13C1029.67,464.44,1029.33,464.48,1028.98,464.48z"/>
		<path class="st16" d="M1014.78,463.74c-1.81,0-4.05-0.9-5.81-3.49c-0.27-0.4-0.17-0.95,0.24-1.23c0.4-0.27,0.95-0.17,1.23,0.24
			c1.61,2.38,3.64,2.93,5,2.65c1.02-0.21,1.76-0.87,1.93-1.75c0.09-0.48,0.56-0.79,1.04-0.69c0.48,0.1,0.79,0.56,0.69,1.04
			c-0.32,1.58-1.59,2.78-3.32,3.13C1015.47,463.71,1015.14,463.74,1014.78,463.74z"/>
		<path class="st16" d="M998.09,464.33c-1.81,0-4.05-0.9-5.81-3.49c-0.27-0.4-0.17-0.95,0.24-1.23c0.4-0.27,0.95-0.17,1.23,0.24
			c1.61,2.38,3.64,2.93,5,2.65c1.02-0.21,1.76-0.87,1.93-1.75c0.09-0.48,0.56-0.79,1.04-0.69c0.48,0.1,0.79,0.56,0.69,1.04
			c-0.32,1.58-1.59,2.78-3.32,3.13C998.78,464.3,998.45,464.33,998.09,464.33z"/>
		<path class="st16" d="M983.09,464.85c-1.81,0-4.05-0.9-5.81-3.49c-0.27-0.4-0.17-0.95,0.24-1.23c0.4-0.27,0.95-0.17,1.23,0.24
			c1.61,2.38,3.64,2.93,5,2.65c1.02-0.21,1.76-0.87,1.93-1.75c0.09-0.48,0.56-0.79,1.04-0.69c0.48,0.1,0.79,0.56,0.69,1.04
			c-0.32,1.58-1.59,2.78-3.32,3.13C983.78,464.81,983.45,464.85,983.09,464.85z"/>
		<path class="st16" d="M1022.14,501.37C1022.13,501.37,1022.13,501.37,1022.14,501.37c-0.5-0.01-0.89-0.4-0.88-0.89l0.29-29.12
			c0-0.49,0.37-0.91,0.89-0.87c0.49,0.01,0.88,0.4,0.87,0.89l-0.29,29.12C1023.01,500.98,1022.62,501.37,1022.14,501.37z"/>
		<path class="st16" d="M1005.52,501.08C1005.51,501.08,1005.51,501.08,1005.52,501.08c-0.5-0.01-0.89-0.4-0.88-0.89l0.29-29.12
			c0-0.49,0.37-0.91,0.89-0.87c0.49,0.01,0.88,0.4,0.87,0.89l-0.29,29.12C1006.39,500.69,1006,501.08,1005.52,501.08z"/>
		<path class="st16" d="M989.78,500.64C989.78,500.64,989.78,500.64,989.78,500.64c-0.5-0.01-0.89-0.39-0.88-0.85l0.29-27.87
			c0-0.47,0.37-0.87,0.89-0.84c0.49,0.01,0.88,0.39,0.87,0.85l-0.29,27.87C990.66,500.27,990.26,500.64,989.78,500.64z"/>
		<path class="st16" d="M807.08,864.02c-13.91,0-22.6-2.05-24.97-6.02c-0.88-1.48-0.8-3.16,0.23-4.74
			c3.1-4.75,18.56-4.42,34.92-4.07c2.55,0.06,5.08,0.11,7.52,0.14c0.49,0.01,0.88,0.41,0.87,0.89c-0.01,0.48-0.4,0.87-0.88,0.87
			c0,0-0.01,0-0.01,0c-2.44-0.03-4.98-0.09-7.54-0.14c-13.74-0.29-30.84-0.66-33.41,3.27c-0.66,1.01-0.72,1.98-0.19,2.87
			c1.04,1.74,7.01,7.18,40.19,4.37c0.51-0.04,0.91,0.32,0.95,0.8c0.04,0.49-0.32,0.91-0.8,0.95
			C817.7,863.76,812.06,864.02,807.08,864.02z"/>
		<path class="st1" d="M471.67,1033.01c0,0,0.88,23.38,7.5,26.47c6.62,3.09,25.59,3.53,25.59,10.15s-7.94,23.82-7.5,38.38
			c0.88,2.65-10.15,3.53-10.15,3.53s1.76,29.12-4.41,30.88c-6.18,1.76-13.24,1.76-17.21-2.65c-8.82,5.29-16.77,2.21-18.09-0.44
			c-4.85,7.5-18.09,0.44-19.41-3.53c-4.41,4.41-16.32,0.44-18.53-8.82c-2.21-9.27-3.97-40.59,0.88-63.53
			c4.85-22.94,4.85-28.24,4.85-28.24L471.67,1033.01z"/>
		<path class="st16" d="M486.67,1108.46c-0.43,0-0.81-0.32-0.87-0.76c-0.05-0.32-1.08-8.09,3.1-25.26c0.12-0.47,0.6-0.76,1.07-0.65
			c0.47,0.12,0.76,0.59,0.65,1.07c-4.09,16.78-3.08,24.52-3.07,24.6c0.07,0.48-0.27,0.93-0.75,1
			C486.75,1108.46,486.71,1108.46,486.67,1108.46z"/>
		<path class="st16" d="M465.27,1137.14c-0.44,0-0.81-0.32-0.87-0.77c-1.96-14.63-2.86-23.55-2.87-23.63
			c-0.05-0.49,0.31-0.92,0.79-0.97c0.5-0.04,0.92,0.31,0.97,0.79c0.01,0.09,0.9,8.98,2.86,23.57c0.06,0.48-0.27,0.93-0.76,0.99
			C465.35,1137.13,465.31,1137.14,465.27,1137.14z"/>
		<path class="st16" d="M446.74,1137.14c-0.42,0-0.79-0.3-0.87-0.73c-2.63-15.12-2.66-20.66-2.66-20.89c0-0.49,0.39-0.88,0.88-0.88
			h0c0.49,0,0.88,0.39,0.88,0.88c0,0.06,0.04,5.66,2.63,20.59c0.08,0.48-0.24,0.94-0.72,1.02
			C446.84,1137.13,446.79,1137.14,446.74,1137.14z"/>
		<path class="st16" d="M427.77,1133.83c-0.42,0-0.79-0.3-0.87-0.72c-1.75-9.64-2.21-15.7-2.22-15.75
			c-0.04-0.49,0.33-0.91,0.81-0.95c0.5-0.04,0.91,0.33,0.95,0.81c0,0.06,0.46,6.03,2.19,15.57c0.09,0.48-0.23,0.94-0.71,1.03
			C427.88,1133.82,427.82,1133.83,427.77,1133.83z"/>
		<path class="st16" d="M473.14,1106.28c-2.23,0-4.38-1.26-5.75-3.42c-0.26-0.41-0.14-0.96,0.27-1.22c0.41-0.26,0.96-0.14,1.22,0.27
			c1.15,1.82,3,2.8,4.8,2.56c1.89-0.25,3.42-1.83,4.2-4.34c0.14-0.46,0.63-0.72,1.1-0.58c0.47,0.14,0.73,0.64,0.58,1.1
			c-0.99,3.19-3.05,5.22-5.65,5.56C473.66,1106.26,473.4,1106.28,473.14,1106.28z"/>
		<path class="st16" d="M452.52,1107.27c-2.23,0-4.38-1.26-5.75-3.42c-0.26-0.41-0.14-0.96,0.27-1.22c0.41-0.26,0.96-0.14,1.22,0.27
			c1.15,1.82,3,2.8,4.8,2.56c1.89-0.25,3.42-1.83,4.2-4.34c0.14-0.46,0.63-0.72,1.1-0.58c0.47,0.14,0.73,0.64,0.58,1.1
			c-0.99,3.19-3.05,5.22-5.65,5.56C453.03,1107.26,452.78,1107.27,452.52,1107.27z"/>
		<path class="st16" d="M433.33,1108.82c-2.23,0-4.38-1.26-5.75-3.42c-0.26-0.41-0.14-0.96,0.27-1.22c0.41-0.26,0.96-0.14,1.22,0.27
			c1.15,1.82,3,2.8,4.8,2.56c1.89-0.25,3.42-1.83,4.2-4.34c0.14-0.46,0.63-0.72,1.1-0.58c0.47,0.14,0.73,0.64,0.58,1.1
			c-0.99,3.19-3.05,5.22-5.65,5.56C433.84,1108.8,433.58,1108.82,433.33,1108.82z"/>
		<path class="st16" d="M416.23,1111.02c-2.23,0-4.38-1.26-5.75-3.42c-0.26-0.41-0.14-0.96,0.27-1.22c0.41-0.26,0.96-0.14,1.22,0.27
			c1.15,1.82,3,2.8,4.8,2.56c1.89-0.25,3.42-1.83,4.2-4.34c0.14-0.46,0.63-0.72,1.1-0.58c0.47,0.14,0.73,0.64,0.58,1.1
			c-0.99,3.19-3.05,5.22-5.65,5.56C416.75,1111.01,416.49,1111.02,416.23,1111.02z"/>
		<path class="st4" d="M457.86,657.32c-0.5,0-0.9-0.4-0.9-0.9c0-18.47-12.87-58.69-52.67-65.11c-0.49-0.08-0.82-0.54-0.74-1.03
			c0.08-0.49,0.53-0.83,1.03-0.74c40.94,6.6,54.18,47.91,54.18,66.88C458.76,656.92,458.36,657.32,457.86,657.32z"/>
		<path class="st4" d="M467.29,995.82c-0.43,0-0.8-0.3-0.88-0.74c-1.08-5.94-26.5-145.52-26.94-149.09
			c-0.45-3.6,12.04-110.18,13.47-122.32c0.06-0.49,0.51-0.85,1-0.79c0.49,0.06,0.85,0.5,0.79,1
			c-3.86,32.84-13.79,118.76-13.47,121.9c0.44,3.52,26.66,147.54,26.93,148.99c0.09,0.49-0.23,0.95-0.72,1.04
			C467.39,995.81,467.34,995.82,467.29,995.82z"/>
		<path class="st4" d="M609.15,777.64c-0.01,0-0.02,0-0.03,0c-0.5-0.02-0.88-0.43-0.87-0.93c0.04-1.06,3.55-106.12,0.01-128.67
			c-0.08-0.49,0.26-0.95,0.75-1.03c0.5-0.07,0.95,0.26,1.03,0.75c3.56,22.72,0.05,127.95,0.01,129.01
			C610.03,777.26,609.63,777.64,609.15,777.64z"/>
		<path class="st1" d="M704.77,598.07c-0.45-5.39-1.35-65.54,2.24-73.18c3.59-7.63,13.02-13.02,13.02-13.02l0.45,8.98
			c8.45,1.35,33.45-0.1,45.28-0.89c4.04-0.27,7.45,3.09,7.12,7.13c-0.5,6.2-4.02,13.2-15.59,14.42c-17.06,1.8-30.98,0-32.32,18.86
			c-1.35,18.86-4.49,38.16-4.49,38.16L704.77,598.07z"/>
		<path class="st16" d="M461.08,466.98c-0.09-0.11-0.23-0.36-0.44-0.7c-6.33-10.44-13.88-13.96-22.41-10.45
			c-0.49,0.2-0.73,0.77-0.53,1.26c0.2,0.49,0.77,0.73,1.26,0.53c5.77-2.37,10.28-0.74,13.62,1.9c-2.73-0.03-5.4,1.22-6.85,3.4
			c-1.71,2.56-1.28,5.67,1.15,8.31c0.19,0.21,0.45,0.31,0.71,0.31c0.23,0,0.47-0.08,0.65-0.25c0.39-0.36,0.42-0.97,0.06-1.36
			c-1.81-1.97-2.16-4.14-0.96-5.94c1.26-1.89,4.28-3.28,7.41-2.16c0.11,0.04,0.23,0.05,0.34,0.05c1.85,2.04,3.15,4.17,3.9,5.41
			c0.27,0.45,0.47,0.76,0.58,0.91c0.19,0.24,0.47,0.36,0.75,0.36c0.21,0,0.42-0.07,0.6-0.21
			C461.34,468.01,461.41,467.4,461.08,466.98z"/>
		<path class="st0" d="M505.32,432.33c8.21-8.37,23.34-11.75,25.27-11.75C521.9,414.94,509.67,417.52,505.32,432.33z"/>
		<path class="st0" d="M523.19,416.79c4.99,1.29,7.41,3.78,7.41,3.78C530.35,417.04,526.97,415.51,523.19,416.79z"/>
		<path class="st0" d="M554.9,420.74c11.11,2.74,15.13,8.37,15.13,8.37C568.1,418.16,558.93,418.81,554.9,420.74z"/>
		<path class="st0" d="M560.46,418.73c-3.14,0.16-5.55,2.01-5.55,2.01C555.14,417.52,558.93,418.08,560.46,418.73z"/>
		<path class="st0" d="M537.68,501.56c-4.29,0-8.99-1.93-11.84-5.17c-0.35-0.4-0.31-1.01,0.09-1.36c0.4-0.35,1.01-0.31,1.36,0.09
			c3.29,3.74,9.66,5.53,13.9,3.92c0.5-0.19,1.06,0.06,1.25,0.56c0.19,0.5-0.06,1.06-0.56,1.25
			C540.6,501.33,539.17,501.56,537.68,501.56z"/>
		<path class="st16" d="M476.67,508.47c-0.23,0-0.46-0.08-0.65-0.25c-0.43-0.39-10.57-9.72-13.82-24.98
			c-0.11-0.52,0.22-1.03,0.74-1.15c0.52-0.11,1.03,0.22,1.15,0.74c3.12,14.66,13.13,23.86,13.23,23.95c0.4,0.36,0.43,0.97,0.07,1.36
			C477.19,508.37,476.93,508.47,476.67,508.47z"/>
		<path class="st16" d="M528.37,533.19c-20.32,0-30.3-8.15-30.75-8.53c-0.41-0.34-0.46-0.95-0.12-1.36
			c0.34-0.41,0.95-0.46,1.36-0.12c0.12,0.1,11.96,9.71,35.69,7.83c0.54-0.05,1,0.36,1.04,0.89c0.04,0.53-0.36,1-0.89,1.04
			C532.49,533.12,530.37,533.19,528.37,533.19z"/>
		<path class="st0" d="M518.48,451.04c-0.12,3.62,1.37,6.6,3.33,6.66c1.95,0.06,3.63-2.82,3.75-6.43c0.12-3.62-1.37-6.6-3.33-6.66
			C520.27,444.54,518.6,447.42,518.48,451.04z"/>
		<path class="st0" d="M521.17,461.38c0.79,0.26,1.63,0.38,2.5,0.33c0.35-0.02,0.61-0.32,0.59-0.66c-0.02-0.35-0.32-0.61-0.66-0.59
			c-2.94,0.17-5.55-2.04-6.2-5.25c-0.07-0.34-0.4-0.56-0.74-0.49c-0.34,0.07-0.56,0.4-0.49,0.74
			C516.74,458.35,518.7,460.56,521.17,461.38z"/>
		<path class="st0" d="M555.26,449.62c-0.12,3.62,1.37,6.6,3.33,6.66c1.95,0.06,3.63-2.82,3.75-6.43c0.12-3.62-1.37-6.6-3.33-6.66
			C557.06,443.12,555.38,446,555.26,449.62z"/>
		<path class="st0" d="M557.95,459.95c0.79,0.26,1.63,0.38,2.5,0.33c0.35-0.02,0.61-0.32,0.59-0.66c-0.02-0.35-0.32-0.61-0.66-0.59
			c-2.94,0.17-5.55-2.04-6.2-5.25c-0.07-0.34-0.4-0.56-0.74-0.49c-0.34,0.07-0.56,0.4-0.49,0.74
			C553.53,456.93,555.48,459.14,557.95,459.95z"/>
		<g>
			<path class="st0" d="M514.66,481.53c-13.96,0-25.31-11.36-25.31-25.31c0-13.96,11.36-25.31,25.31-25.31
				c13.96,0,25.31,11.35,25.31,25.31C539.97,470.17,528.62,481.53,514.66,481.53z M514.66,432.8c-12.91,0-23.42,10.5-23.42,23.41
				c0,12.91,10.5,23.42,23.42,23.42c12.91,0,23.42-10.5,23.42-23.42C538.08,443.31,527.57,432.8,514.66,432.8z"/>
		</g>
		<g>
			<path class="st0" d="M550.02,460.33c-0.57-1.96-0.87-4.03-0.87-6.17c0-12.21,9.94-22.15,22.15-22.15
				c12.21,0,22.15,9.94,22.15,22.15c0,12.21-9.94,22.15-22.15,22.15c-1.6,0-3.16-0.17-4.66-0.49l0.78-1.54
				c1.26,0.24,2.55,0.37,3.88,0.37c11.3,0,20.49-9.19,20.49-20.49c0-11.3-9.19-20.49-20.49-20.49c-11.3,0-20.49,9.19-20.49,20.49
				c0,2.7,0.53,5.29,1.48,7.65L550.02,460.33z"/>
		</g>
		<path class="st0" d="M549.11,483.36c-0.52,0-0.95-0.42-0.97-0.95c-0.01-0.53,0.41-0.97,0.95-0.99c7.04-0.14,15.67-5.05,17.12-6.62
			c-0.59-0.6-2.34-1.79-3.9-2.85c-3.63-2.46-8.61-5.84-11.24-9.43c-4.54-6.22-4.22-8.64-3.26-15.81c0.07-0.53,0.57-0.99,1.1-0.92
			c0.53,0.07,0.91,0.47,0.84,1l-0.02,0.18c-0.93,6.96-1.18,8.83,2.91,14.42c2.43,3.33,7.24,6.59,10.76,8.98
			c3.8,2.58,5,3.45,4.88,4.58c-0.27,2.46-11.49,8.27-19.13,8.43C549.12,483.36,549.11,483.36,549.11,483.36z"/>
	</g>
	<g>
		<g>
			<polygon class="st19" points="1228.89,386.94 1087.56,309.74 1089.25,306.65 1227.94,382.4 1347.02,228.29 1349.81,230.45 			"/>
		</g>
		
			<ellipse transform="matrix(0.9239 -0.3827 0.3827 0.9239 -35.0915 439.9743)" class="st19" cx="1088.41" cy="308.2" rx="15.29" ry="15.29"/>
		<circle class="st19" cx="1228.41" cy="384.67" r="15.29"/>
		
			<ellipse transform="matrix(0.9239 -0.3827 0.3827 0.9239 14.8663 533.4758)" class="st19" cx="1348.42" cy="229.37" rx="15.29" ry="15.29"/>
	</g>
	<g>
		<g>
			
				<rect x="824.85" y="351.59" transform="matrix(0.7071 -0.7071 0.7071 0.7071 -4.4629 700.3432)" class="st4" width="36.62" height="7.94"/>
			
				<rect x="839.19" y="337.25" transform="matrix(0.7071 -0.7071 0.7071 0.7071 -4.4629 700.3432)" class="st4" width="7.94" height="36.62"/>
		</g>
	</g>
	<g>
		<g>
			<circle class="st19" cx="232.54" cy="575.94" r="6.47"/>
			<path class="st19" d="M270.78,575.94c0,3.57-2.9,6.47-6.47,6.47c-3.57,0-6.47-2.9-6.47-6.47s2.9-6.47,6.47-6.47
				C267.88,569.46,270.78,572.36,270.78,575.94z"/>
			<path class="st19" d="M300.78,575.94c0,3.57-2.9,6.47-6.47,6.47c-3.57,0-6.47-2.9-6.47-6.47s2.9-6.47,6.47-6.47
				C297.88,569.46,300.78,572.36,300.78,575.94z"/>
			<path class="st19" d="M329.02,575.94c0,3.57-2.9,6.47-6.47,6.47c-3.57,0-6.47-2.9-6.47-6.47s2.9-6.47,6.47-6.47
				C326.12,569.46,329.02,572.36,329.02,575.94z"/>
			<circle class="st19" cx="232.54" cy="547.7" r="6.47"/>
			<path class="st19" d="M270.78,547.7c0,3.57-2.9,6.47-6.47,6.47c-3.57,0-6.47-2.9-6.47-6.47s2.9-6.47,6.47-6.47
				C267.88,541.23,270.78,544.13,270.78,547.7z"/>
			<path class="st19" d="M300.78,547.7c0,3.57-2.9,6.47-6.47,6.47c-3.57,0-6.47-2.9-6.47-6.47s2.9-6.47,6.47-6.47
				C297.88,541.23,300.78,544.13,300.78,547.7z"/>
			<path class="st19" d="M329.02,547.7c0,3.57-2.9,6.47-6.47,6.47c-3.57,0-6.47-2.9-6.47-6.47s2.9-6.47,6.47-6.47
				C326.12,541.23,329.02,544.13,329.02,547.7z"/>
			<path class="st19" d="M239.01,607.7c0,3.57-2.9,6.47-6.47,6.47c-3.57,0-6.47-2.9-6.47-6.47c0-3.57,2.9-6.47,6.47-6.47
				C236.12,601.23,239.01,604.13,239.01,607.7z"/>
			<path class="st19" d="M270.78,607.7c0,3.57-2.9,6.47-6.47,6.47c-3.57,0-6.47-2.9-6.47-6.47c0-3.57,2.9-6.47,6.47-6.47
				C267.88,601.23,270.78,604.13,270.78,607.7z"/>
			<path class="st19" d="M300.78,607.7c0,3.57-2.9,6.47-6.47,6.47c-3.57,0-6.47-2.9-6.47-6.47c0-3.57,2.9-6.47,6.47-6.47
				C297.88,601.23,300.78,604.13,300.78,607.7z"/>
			<path class="st19" d="M329.02,607.7c0,3.57-2.9,6.47-6.47,6.47c-3.57,0-6.47-2.9-6.47-6.47c0-3.57,2.9-6.47,6.47-6.47
				C326.12,601.23,329.02,604.13,329.02,607.7z"/>
		</g>
	</g>
	<rect x="1696.73" y="817.42" class="st8" width="49.41" height="49.41"/>
	
		<rect x="256.67" y="1276.26" transform="matrix(0.7071 0.7071 -0.7071 0.7071 1002.3359 182.0835)" class="st20" width="49.41" height="49.41"/>
	
		<rect x="302.55" y="1328.62" transform="matrix(-1.836970e-16 1 -1 -1.836970e-16 1663.5219 1026.0701)" class="st6" width="32.35" height="32.35"/>
	
		<ellipse transform="matrix(0.7071 -0.7071 0.7071 0.7071 -249.1897 974.4103)" class="st20" cx="1051.62" cy="788" rx="14.12" ry="14.12"/>
	<polygon class="st12" points="1088.9,790.8 1056.26,790.8 1072.58,753.74 	"/>
	<polygon class="st20" points="1724.19,1420.79 1691.54,1420.79 1707.87,1383.73 	"/>
	
		<ellipse transform="matrix(0.7071 -0.7071 0.7071 0.7071 -515.4681 1604.7839)" class="st12" cx="1679.41" cy="1424.62" rx="24.27" ry="24.27"/>
	<path class="st0" d="M551.97,460.93c-0.35,0-0.68-0.21-0.82-0.55c-1.04-2.57-2.96-4.19-5.41-4.54c-3.15-0.46-6.7,1.25-9.26,4.46
		c-0.3,0.38-0.86,0.45-1.24,0.14c-0.38-0.3-0.44-0.86-0.14-1.24c2.94-3.7,7.13-5.67,10.89-5.11c3.09,0.45,5.51,2.45,6.79,5.63
		c0.18,0.45-0.04,0.97-0.49,1.15C552.19,460.91,552.08,460.93,551.97,460.93z"/>
	<path class="st0" d="M490.02,456.67c-0.35,0-10.66-2.13-30.62-6.34c-0.48-0.1-0.78-0.57-0.68-1.05c0.1-0.48,0.57-0.78,1.05-0.68
		c11.75,2.48,29.53,6.2,30.35,6.31c0.49,0,0.84,0.39,0.84,0.88C490.94,456.27,490.51,456.67,490.02,456.67z"/>
</g>
</svg>
